<?xml version="1.0" encoding="utf-8"?>
<!-- Generator: Adobe Illustrator 27.3.1, SVG Export Plug-In . SVG Version: 6.00 Build 0)  -->
<svg version="1.1" id="Layer_1" xmlns="http://www.w3.org/2000/svg" xmlns:xlink="http://www.w3.org/1999/xlink" x="0px" y="0px"
	 viewBox="0 0 400 400" style="enable-background:new 0 0 400 400;" xml:space="preserve">
<style type="text/css">
	.st0{fill:#222428;}
	.st1{fill:#FCD804;}
</style>
<g>
	<path class="st0" d="M43.9,398.5c-23.4,0-42.4-19-42.4-42.4V43.9c0-23.4,19-42.4,42.4-42.4h197.3c23.4,0,42.4,19,42.4,42.4
		c0,22.8,18.6,41.4,41.4,41.4h31.1c23.4,0,42.4,19,42.4,42.4v228.4c0,23.4-19,42.4-42.4,42.4H43.9z"/>
	<path class="st1" d="M241.2,2c23.1,0,41.9,18.8,41.9,41.9v0c0,23.1,18.8,41.9,41.9,41.9h31.1c23.1,0,41.9,18.8,41.9,41.9v228.4
		c0,23.1-18.8,41.9-41.9,41.9H43.9C20.8,398,2,379.2,2,356.1V43.9C2,20.8,20.8,2,43.9,2H241.2 M241.2,1H43.9C20.2,1,1,20.2,1,43.9
		v312.2C1,379.8,20.2,399,43.9,399h312.2c23.7,0,42.9-19.2,42.9-42.9V127.7c0-23.7-19.2-42.9-42.9-42.9H325
		c-22.6,0-40.9-18.3-40.9-40.9C284.1,20.2,264.9,1,241.2,1L241.2,1z"/>
</g>
<image style="display:none;overflow:visible;opacity:0.53;" width="393" height="397" xlink:href="A40B93A2.jpg"  transform="matrix(0.7913 0 0 0.7913 48 52)">
</image>
</svg>
